# 3ds Max Wavefront OBJ Exporter v0.97b - (c)2007 guruware
# File Created: 14.03.2016 19:26:46

mtllib softcube.mtl

#
# object Box002
#

v  -0.4134 -0.4921 0.4134
v  -0.4134 -0.4921 -0.4134
v  0.4134 -0.4921 -0.4134
v  0.4134 -0.4921 0.4134
v  -0.4134 0.4921 0.4134
v  0.4134 0.4921 0.4134
v  0.4134 0.4921 -0.4134
v  -0.4134 0.4921 -0.4134
v  -0.4134 -0.4134 0.4921
v  0.4134 -0.4134 0.4921
v  0.4134 0.4134 0.4921
v  -0.4134 0.4134 0.4921
v  0.4921 -0.4134 0.4134
v  0.4921 -0.4134 -0.4134
v  0.4921 0.4134 -0.4134
v  0.4921 0.4134 0.4134
v  0.4134 -0.4134 -0.4921
v  -0.4134 -0.4134 -0.4921
v  -0.4134 0.4134 -0.4921
v  0.4134 0.4134 -0.4921
v  -0.4921 -0.4134 -0.4134
v  -0.4921 -0.4134 0.4134
v  -0.4921 0.4134 0.4134
v  -0.4921 0.4134 -0.4134
v  -0.4285 -0.4457 0.4872
v  -0.4134 -0.4478 0.4872
v  0.4285 -0.4872 0.4457
v  0.4134 -0.4872 0.4478
v  -0.4872 -0.4457 -0.4285
v  -0.4872 -0.4478 -0.4134
v  0.4457 -0.4872 -0.4285
v  0.4478 -0.4872 -0.4134
v  -0.4457 0.4285 0.4872
v  -0.4478 0.4134 0.4872
v  0.4872 0.4285 0.4457
v  0.4872 0.4134 0.4478
v  -0.4872 0.4285 -0.4457
v  -0.4872 0.4134 -0.4478
v  0.4457 0.4285 -0.4872
v  0.4478 0.4134 -0.4872
v  -0.4478 -0.4872 -0.4134
v  -0.4478 -0.4872 0.4134
v  0.4134 -0.4872 -0.4478
v  -0.4134 -0.4872 -0.4478
v  0.4478 -0.4872 0.4134
v  -0.4134 -0.4872 0.4478
v  0.4134 0.4872 0.4478
v  -0.4134 0.4872 0.4478
v  0.4478 0.4872 -0.4134
v  0.4478 0.4872 0.4134
v  -0.4134 0.4872 -0.4478
v  0.4134 0.4872 -0.4478
v  -0.4478 0.4872 0.4134
v  -0.4478 0.4872 -0.4134
v  0.4478 0.4134 0.4872
v  0.4478 -0.4134 0.4872
v  -0.4478 -0.4134 0.4872
v  0.4872 0.4134 -0.4478
v  0.4872 -0.4134 -0.4478
v  -0.4478 0.4134 -0.4872
v  -0.4478 -0.4134 -0.4872
v  -0.4457 -0.4285 0.4872
v  -0.4688 -0.4392 0.4724
v  -0.4724 -0.4134 0.4724
v  -0.4826 -0.4457 0.4478
v  -0.4872 -0.4134 0.4478
v  -0.4872 -0.4478 0.4134
v  -0.4392 -0.4392 0.4872
v  -0.4577 -0.4577 0.4724
v  -0.4688 -0.4688 0.4478
v  -0.4724 -0.4724 0.4134
v  -0.4392 -0.4688 0.4724
v  -0.4457 -0.4826 0.4478
v  -0.4134 -0.4724 0.4724
v  0.4457 -0.4872 0.4285
v  0.4688 -0.4724 0.4392
v  0.4724 -0.4724 0.4134
v  0.4826 -0.4478 0.4457
v  0.4872 -0.4478 0.4134
v  0.4872 -0.4134 0.4478
v  0.4392 -0.4872 0.4392
v  0.4577 -0.4724 0.4577
v  0.4688 -0.4478 0.4688
v  0.4724 -0.4134 0.4724
v  0.4392 -0.4724 0.4688
v  0.4457 -0.4478 0.4826
v  0.4134 -0.4724 0.4724
v  0.4134 -0.4478 0.4872
v  -0.4872 -0.4134 -0.4478
v  -0.4872 -0.4285 -0.4457
v  -0.4724 -0.4392 -0.4688
v  -0.4724 -0.4134 -0.4724
v  -0.4478 -0.4457 -0.4826
v  -0.4134 -0.4478 -0.4872
v  -0.4872 -0.4392 -0.4392
v  -0.4724 -0.4577 -0.4577
v  -0.4478 -0.4688 -0.4688
v  -0.4134 -0.4724 -0.4724
v  -0.4724 -0.4688 -0.4392
v  -0.4478 -0.4826 -0.4457
v  -0.4724 -0.4724 -0.4134
v  0.4285 -0.4872 -0.4457
v  0.4392 -0.4724 -0.4688
v  0.4134 -0.4724 -0.4724
v  0.4457 -0.4478 -0.4826
v  0.4134 -0.4478 -0.4872
v  0.4478 -0.4134 -0.4872
v  0.4392 -0.4872 -0.4392
v  0.4577 -0.4724 -0.4577
v  0.4688 -0.4478 -0.4688
v  0.4724 -0.4134 -0.4724
v  0.4688 -0.4724 -0.4392
v  0.4826 -0.4478 -0.4457
v  0.4724 -0.4724 -0.4134
v  0.4872 -0.4478 -0.4134
v  -0.4134 0.4478 0.4872
v  -0.4285 0.4457 0.4872
v  -0.4392 0.4688 0.4724
v  -0.4134 0.4724 0.4724
v  -0.4457 0.4826 0.4478
v  -0.4392 0.4392 0.4872
v  -0.4577 0.4577 0.4724
v  -0.4688 0.4688 0.4478
v  -0.4724 0.4724 0.4134
v  -0.4688 0.4392 0.4724
v  -0.4826 0.4457 0.4478
v  -0.4872 0.4478 0.4134
v  -0.4724 0.4134 0.4724
v  -0.4872 0.4134 0.4478
v  0.4872 0.4478 0.4134
v  0.4872 0.4457 0.4285
v  0.4724 0.4688 0.4392
v  0.4724 0.4724 0.4134
v  0.4478 0.4826 0.4457
v  0.4872 0.4392 0.4392
v  0.4724 0.4577 0.4577
v  0.4478 0.4688 0.4688
v  0.4134 0.4724 0.4724
v  0.4724 0.4392 0.4688
v  0.4478 0.4457 0.4826
v  0.4134 0.4478 0.4872
v  0.4724 0.4134 0.4724
v  -0.4872 0.4478 -0.4134
v  -0.4872 0.4457 -0.4285
v  -0.4724 0.4688 -0.4392
v  -0.4724 0.4724 -0.4134
v  -0.4478 0.4826 -0.4457
v  -0.4872 0.4392 -0.4392
v  -0.4724 0.4577 -0.4577
v  -0.4478 0.4688 -0.4688
v  -0.4134 0.4724 -0.4724
v  -0.4724 0.4392 -0.4688
v  -0.4478 0.4457 -0.4826
v  -0.4134 0.4478 -0.4872
v  -0.4724 0.4134 -0.4724
v  0.4134 0.4478 -0.4872
v  0.4285 0.4457 -0.4872
v  0.4392 0.4688 -0.4724
v  0.4134 0.4724 -0.4724
v  0.4457 0.4826 -0.4478
v  0.4392 0.4392 -0.4872
v  0.4577 0.4577 -0.4724
v  0.4688 0.4688 -0.4478
v  0.4724 0.4724 -0.4134
v  0.4688 0.4392 -0.4724
v  0.4826 0.4457 -0.4478
v  0.4872 0.4478 -0.4134
v  0.4724 0.4134 -0.4724
# 168 vertices

vn -0.0705 -0.9950 0.0705
vn -0.0705 -0.9950 -0.0705
vn 0.0572 -0.9967 -0.0572
vn 0.0572 -0.9967 0.0572
vn -0.0705 0.9950 0.0705
vn 0.0705 0.9950 0.0705
vn 0.0705 0.9950 -0.0705
vn -0.0705 0.9950 -0.0705
vn -0.0572 -0.0572 0.9967
vn 0.0705 -0.0705 0.9950
vn 0.0705 0.0705 0.9950
vn -0.0572 0.0572 0.9967
vn 0.9950 -0.0705 0.0705
vn 0.9950 -0.0705 -0.0705
vn 0.9950 0.0705 -0.0705
vn 0.9967 0.0572 0.0572
vn 0.0705 -0.0705 -0.9950
vn -0.0705 -0.0705 -0.9950
vn -0.0705 0.0705 -0.9950
vn 0.0572 0.0572 -0.9967
vn -0.9967 -0.0572 -0.0572
vn -0.9950 -0.0705 0.0705
vn -0.9950 0.0705 0.0705
vn -0.9967 0.0572 -0.0572
vn -0.1138 -0.3293 0.9374
vn -0.0249 -0.3423 0.9393
vn 0.1138 -0.9374 0.3293
vn 0.0249 -0.9393 0.3423
vn -0.9374 -0.3293 -0.1138
vn -0.9393 -0.3423 -0.0249
vn 0.3293 -0.9374 -0.1138
vn 0.3423 -0.9393 -0.0249
vn -0.3293 0.1138 0.9374
vn -0.3423 0.0249 0.9393
vn 0.9374 0.1138 0.3293
vn 0.9393 0.0249 0.3423
vn -0.9374 0.1138 -0.3293
vn -0.9393 0.0249 -0.3423
vn 0.3293 0.1138 -0.9374
vn 0.3423 0.0249 -0.9393
vn -0.3311 -0.9412 -0.0664
vn -0.3345 -0.9396 0.0723
vn 0.0249 -0.9393 -0.3423
vn -0.0723 -0.9396 -0.3345
vn 0.3423 -0.9393 0.0249
vn -0.0664 -0.9412 0.3311
vn 0.0723 0.9396 0.3345
vn -0.0664 0.9412 0.3311
vn 0.3345 0.9396 -0.0723
vn 0.3311 0.9412 0.0664
vn -0.0723 0.9396 -0.3345
vn 0.0664 0.9412 -0.3311
vn -0.3345 0.9396 0.0723
vn -0.3311 0.9412 -0.0664
vn 0.3311 0.0664 0.9412
vn 0.3345 -0.0723 0.9396
vn -0.3423 -0.0249 0.9393
vn 0.9412 0.0664 -0.3311
vn 0.9396 -0.0723 -0.3345
vn -0.3311 0.0664 -0.9412
vn -0.3311 -0.0664 -0.9412
vn -0.3293 -0.1138 0.9374
vn -0.6723 -0.2374 0.7012
vn -0.7115 -0.0507 0.7009
vn -0.8875 -0.3166 0.3348
vn -0.9412 -0.0664 0.3311
vn -0.9396 -0.3345 0.0723
vn -0.2437 -0.2437 0.9387
vn -0.5001 -0.5001 0.7069
vn -0.6648 -0.6648 0.3409
vn -0.7052 -0.7052 0.0743
vn -0.2374 -0.6723 0.7012
vn -0.3166 -0.8875 0.3348
vn -0.0507 -0.7115 0.7009
vn 0.3293 -0.9374 0.1138
vn 0.6723 -0.7012 0.2374
vn 0.7115 -0.7009 0.0507
vn 0.8875 -0.3348 0.3166
vn 0.9412 -0.3311 0.0664
vn 0.9396 -0.0723 0.3345
vn 0.2437 -0.9387 0.2437
vn 0.5001 -0.7069 0.5001
vn 0.6648 -0.3409 0.6648
vn 0.7052 -0.0743 0.7052
vn 0.2374 -0.7012 0.6723
vn 0.3166 -0.3348 0.8875
vn 0.0507 -0.7009 0.7115
vn 0.0664 -0.3311 0.9412
vn -0.9393 -0.0249 -0.3423
vn -0.9374 -0.1138 -0.3293
vn -0.7012 -0.2374 -0.6723
vn -0.7009 -0.0507 -0.7115
vn -0.3348 -0.3166 -0.8875
vn -0.0723 -0.3345 -0.9396
vn -0.9387 -0.2437 -0.2437
vn -0.7069 -0.5001 -0.5001
vn -0.3409 -0.6648 -0.6648
vn -0.0743 -0.7052 -0.7052
vn -0.7012 -0.6723 -0.2374
vn -0.3348 -0.8875 -0.3166
vn -0.7009 -0.7115 -0.0507
vn 0.1138 -0.9374 -0.3293
vn 0.2374 -0.7012 -0.6723
vn 0.0507 -0.7009 -0.7115
vn 0.3166 -0.3348 -0.8875
vn 0.0664 -0.3311 -0.9412
vn 0.3345 -0.0723 -0.9396
vn 0.2437 -0.9387 -0.2437
vn 0.5001 -0.7069 -0.5001
vn 0.6648 -0.3409 -0.6648
vn 0.7052 -0.0743 -0.7052
vn 0.6723 -0.7012 -0.2374
vn 0.8875 -0.3348 -0.3166
vn 0.7115 -0.7009 -0.0507
vn 0.9412 -0.3311 -0.0664
vn -0.0249 0.3423 0.9393
vn -0.1138 0.3293 0.9374
vn -0.2374 0.6723 0.7012
vn -0.0507 0.7115 0.7009
vn -0.3166 0.8875 0.3348
vn -0.2437 0.2437 0.9387
vn -0.5001 0.5001 0.7069
vn -0.6648 0.6648 0.3409
vn -0.7052 0.7052 0.0743
vn -0.6723 0.2374 0.7012
vn -0.8875 0.3166 0.3348
vn -0.9396 0.3345 0.0723
vn -0.7115 0.0507 0.7009
vn -0.9412 0.0664 0.3311
vn 0.9393 0.3423 0.0249
vn 0.9374 0.3293 0.1138
vn 0.7012 0.6723 0.2374
vn 0.7009 0.7115 0.0507
vn 0.3348 0.8875 0.3166
vn 0.9387 0.2437 0.2437
vn 0.7069 0.5001 0.5001
vn 0.3409 0.6648 0.6648
vn 0.0743 0.7052 0.7052
vn 0.7012 0.2374 0.6723
vn 0.3348 0.3166 0.8875
vn 0.0723 0.3345 0.9396
vn 0.7009 0.0507 0.7115
vn -0.9393 0.3423 -0.0249
vn -0.9374 0.3293 -0.1138
vn -0.7012 0.6723 -0.2374
vn -0.7009 0.7115 -0.0507
vn -0.3348 0.8875 -0.3166
vn -0.9387 0.2437 -0.2437
vn -0.7069 0.5001 -0.5001
vn -0.3409 0.6648 -0.6648
vn -0.0743 0.7052 -0.7052
vn -0.7012 0.2374 -0.6723
vn -0.3348 0.3166 -0.8875
vn -0.0723 0.3345 -0.9396
vn -0.7009 0.0507 -0.7115
vn 0.0249 0.3423 -0.9393
vn 0.1138 0.3293 -0.9374
vn 0.2374 0.6723 -0.7012
vn 0.0507 0.7115 -0.7009
vn 0.3166 0.8875 -0.3348
vn 0.2437 0.2437 -0.9387
vn 0.5001 0.5001 -0.7069
vn 0.6648 0.6648 -0.3409
vn 0.7052 0.7052 -0.0743
vn 0.6723 0.2374 -0.7012
vn 0.8875 0.3166 -0.3348
vn 0.9396 0.3345 -0.0723
vn 0.7115 0.0507 -0.7009
# 168 vertex normals

vt 0.9200 0.0800 0.0000
vt 0.9200 0.9200 0.0000
vt 0.0800 0.9200 0.0000
vt 0.0800 0.0800 0.0000
vt 0.0800 0.0800 1.0000
vt 0.9200 0.0800 1.0000
vt 0.9200 0.9200 1.0000
vt 0.0800 0.9200 1.0000
vt 0.0647 0.0472 0.0050
vt 0.0800 0.0450 0.0050
vt 0.0472 0.9353 0.0050
vt 0.0450 0.9200 0.0050
vt 0.0472 0.9353 0.9950
vt 0.0450 0.9200 0.9950
vt 0.9550 0.9200 0.0050
vt 0.9550 0.0800 0.0050
vt 0.0800 0.9550 0.0050
vt 0.9200 0.9550 0.0050
vt 0.0450 0.0800 0.0050
vt 0.9200 0.0450 0.0050
vt 0.9200 0.0450 0.9950
vt 0.0800 0.0450 0.9950
vt 0.9550 0.9200 0.9950
vt 0.9550 0.0800 0.9950
vt 0.0800 0.9550 0.9950
vt 0.9200 0.9550 0.9950
vt 0.0450 0.0800 0.9950
vt 0.0472 0.0647 0.0050
vt 0.0237 0.0538 0.0200
vt 0.0200 0.0800 0.0200
vt 0.9550 0.0472 0.0097
vt 0.9800 0.0538 0.0237
vt 0.9800 0.0800 0.0200
vt 0.0537 0.0538 0.0050
vt 0.0350 0.0350 0.0200
vt 0.9550 0.0238 0.0237
vt 0.9800 0.0350 0.0350
vt 0.9200 0.0200 0.0200
vt 0.0537 0.0238 0.0200
vt 0.9528 0.0450 0.0097
vt 0.9463 0.0200 0.0238
vt 0.9650 0.0200 0.0350
vt 0.9763 0.0450 0.0238
vt 0.0800 0.0200 0.0200
vt 0.0238 0.0537 0.0200
vt 0.0472 0.0450 0.9903
vt 0.0537 0.0200 0.9762
vt 0.0800 0.0200 0.9800
vt 0.0538 0.0537 0.0050
vt 0.0237 0.0450 0.9762
vt 0.0350 0.0200 0.9650
vt 0.0200 0.0800 0.9800
vt 0.0538 0.0237 0.0200
vt 0.9462 0.0200 0.0237
vt 0.9762 0.0450 0.0237
vt 0.9550 0.0472 0.9903
vt 0.9800 0.0538 0.9763
vt 0.9800 0.0800 0.9800
vt 0.9550 0.0238 0.9763
vt 0.9800 0.0350 0.9650
vt 0.9200 0.0200 0.9800
vt 0.9550 0.9528 0.0097
vt 0.9800 0.9463 0.0238
vt 0.9800 0.9650 0.0350
vt 0.9550 0.9763 0.0238
vt 0.9200 0.9800 0.0200
vt 0.9800 0.9200 0.0200
vt 0.0647 0.9528 0.0050
vt 0.0537 0.9762 0.0200
vt 0.0800 0.9800 0.0200
vt 0.0537 0.9462 0.0050
vt 0.0350 0.9650 0.0200
vt 0.0237 0.9462 0.0200
vt 0.9528 0.0450 0.9903
vt 0.9462 0.0200 0.9763
vt 0.9650 0.0200 0.9650
vt 0.9762 0.0450 0.9763
vt 0.0200 0.9200 0.0200
vt 0.9800 0.9462 0.0237
vt 0.9550 0.9762 0.0237
vt 0.0647 0.9528 0.9950
vt 0.0537 0.9762 0.9800
vt 0.0800 0.9800 0.9800
vt 0.9800 0.0537 0.9762
vt 0.0537 0.9462 0.9950
vt 0.0350 0.9650 0.9800
vt 0.9550 0.0237 0.9762
vt 0.0237 0.9462 0.9800
vt 0.0200 0.9200 0.9800
vt 0.0450 0.9528 0.9903
vt 0.0200 0.9463 0.9762
vt 0.0450 0.9763 0.9762
vt 0.0200 0.9650 0.9650
vt 0.9550 0.9528 0.9903
vt 0.9800 0.9462 0.9763
vt 0.9800 0.9650 0.9650
vt 0.9550 0.9762 0.9763
vt 0.9200 0.9800 0.9800
vt 0.9800 0.9200 0.9800
vt 0.9528 0.9550 0.9903
vt 0.9463 0.9800 0.9762
vt 0.9763 0.9550 0.9762
vt 0.9650 0.9800 0.9650
# 103 texture coords

g Box002
usemtl wire_061135006
s 1
f 1/1/1 2/2/2 3/3/3 
f 3/3/3 4/4/4 1/1/1 
f 5/5/5 6/6/6 7/7/7 
f 7/7/7 8/8/8 5/5/5 
f 9/4/9 10/1/10 11/2/11 
f 11/2/11 12/3/12 9/4/9 
f 13/5/13 14/6/14 15/7/15 
f 15/7/15 16/8/16 13/5/13 
f 17/5/17 18/6/18 19/7/19 
f 19/7/19 20/8/20 17/5/17 
f 21/4/21 22/1/22 23/2/23 
f 23/2/23 24/3/24 21/4/21 
f 9/4/9 25/9/25 26/10/26 
f 4/4/4 27/9/27 28/10/28 
f 21/4/21 29/9/29 30/10/30 
f 3/3/3 31/11/31 32/12/32 
f 12/3/12 33/11/33 34/12/34 
f 16/8/16 35/13/35 36/14/36 
f 24/3/24 37/11/37 38/12/38 
f 20/8/20 39/13/39 40/14/40 
f 41/15/41 2/2/2 1/1/1 
f 1/1/1 42/16/42 41/15/41 
f 43/17/43 3/3/3 2/2/2 
f 2/2/2 44/18/44 43/17/43 
f 45/19/45 4/4/4 3/3/3 
f 3/3/3 32/12/32 45/19/45 
f 46/20/46 1/1/1 4/4/4 
f 4/4/4 28/10/28 46/20/46 
f 47/21/47 6/6/6 5/5/5 
f 5/5/5 48/22/48 47/21/47 
f 49/23/49 7/7/7 6/6/6 
f 6/6/6 50/24/50 49/23/49 
f 51/25/51 8/8/8 7/7/7 
f 7/7/7 52/26/52 51/25/51 
f 53/27/53 5/5/5 8/8/8 
f 8/8/8 54/14/54 53/27/53 
f 55/15/55 11/2/11 10/1/10 
f 10/1/10 56/16/56 55/15/55 
f 57/19/57 9/4/9 12/3/12 
f 12/3/12 34/12/34 57/19/57 
f 58/23/58 15/7/15 14/6/14 
f 14/6/14 59/24/59 58/23/58 
f 60/23/60 19/7/19 18/6/18 
f 18/6/18 61/24/61 60/23/60 
f 9/4/9 57/19/57 62/28/62 
f 63/29/63 62/28/62 57/19/57 
f 57/19/57 64/30/64 63/29/63 
f 65/31/65 63/32/63 64/33/64 
f 64/33/64 66/16/66 65/31/65 
f 67/20/67 65/31/65 66/16/66 
f 66/16/66 22/1/22 67/20/67 
f 9/4/9 62/28/62 68/34/68 
f 69/35/69 68/34/68 62/28/62 
f 62/28/62 63/29/63 69/35/69 
f 70/36/70 69/37/69 63/32/63 
f 63/32/63 65/31/65 70/36/70 
f 71/38/71 70/36/70 65/31/65 
f 65/31/65 67/20/67 71/38/71 
f 9/4/9 68/34/68 25/9/25 
f 72/39/72 25/9/25 68/34/68 
f 68/34/68 69/35/69 72/39/72 
f 73/40/73 72/41/72 69/42/69 
f 69/42/69 70/43/70 73/40/73 
f 42/16/42 73/40/73 70/43/70 
f 70/43/70 71/33/71 42/16/42 
f 74/44/74 26/10/26 25/9/25 
f 25/9/25 72/39/72 74/44/74 
f 46/20/46 74/38/74 72/41/72 
f 72/41/72 73/40/73 46/20/46 
f 1/1/1 46/20/46 73/40/73 
f 73/40/73 42/16/42 1/1/1 
f 4/4/4 45/19/45 75/28/75 
f 76/45/76 75/28/75 45/19/45 
f 45/19/45 77/30/77 76/45/76 
f 78/46/78 76/47/76 77/48/77 
f 77/48/77 79/22/79 78/46/78 
f 80/27/80 78/46/78 79/22/79 
f 79/22/79 13/5/13 80/27/80 
f 4/4/4 75/28/75 81/49/81 
f 82/35/82 81/49/81 75/28/75 
f 75/28/75 76/45/76 82/35/82 
f 83/50/83 82/51/82 76/47/76 
f 76/47/76 78/46/78 83/50/83 
f 84/52/84 83/50/83 78/46/78 
f 78/46/78 80/27/80 84/52/84 
f 4/4/4 81/49/81 27/9/27 
f 85/53/85 27/9/27 81/49/81 
f 81/49/81 82/35/82 85/53/85 
f 86/40/86 85/54/85 82/42/82 
f 82/42/82 83/55/83 86/40/86 
f 56/16/56 86/40/86 83/55/83 
f 83/55/83 84/33/84 56/16/56 
f 87/44/87 28/10/28 27/9/27 
f 27/9/27 85/53/85 87/44/87 
f 88/20/88 87/38/87 85/54/85 
f 85/54/85 86/40/86 88/20/88 
f 10/1/10 88/20/88 86/40/86 
f 86/40/86 56/16/56 10/1/10 
f 21/4/21 89/19/89 90/28/90 
f 91/29/91 90/28/90 89/19/89 
f 89/19/89 92/30/92 91/29/91 
f 93/56/93 91/57/91 92/58/92 
f 92/58/92 61/24/61 93/56/93 
f 94/21/94 93/56/93 61/24/61 
f 61/24/61 18/6/18 94/21/94 
f 21/4/21 90/28/90 95/34/95 
f 96/35/96 95/34/95 90/28/90 
f 90/28/90 91/29/91 96/35/96 
f 97/59/97 96/60/96 91/57/91 
f 91/57/91 93/56/93 97/59/97 
f 98/61/98 97/59/97 93/56/93 
f 93/56/93 94/21/94 98/61/98 
f 21/4/21 95/34/95 29/9/29 
f 99/39/99 29/9/29 95/34/95 
f 95/34/95 96/35/96 99/39/99 
f 100/62/100 99/63/99 96/64/96 
f 96/64/96 97/65/97 100/62/100 
f 44/18/44 100/62/100 97/65/97 
f 97/65/97 98/66/98 44/18/44 
f 101/44/101 30/10/30 29/9/29 
f 29/9/29 99/39/99 101/44/101 
f 41/15/41 101/67/101 99/63/99 
f 99/63/99 100/62/100 41/15/41 
f 2/2/2 41/15/41 100/62/100 
f 100/62/100 44/18/44 2/2/2 
f 3/3/3 43/17/43 102/68/102 
f 103/69/103 102/68/102 43/17/43 
f 43/17/43 104/70/104 103/69/103 
f 105/46/105 103/47/103 104/48/104 
f 104/48/104 106/22/106 105/46/105 
f 107/27/107 105/46/105 106/22/106 
f 106/22/106 17/5/17 107/27/107 
f 3/3/3 102/68/102 108/71/108 
f 109/72/109 108/71/108 102/68/102 
f 102/68/102 103/69/103 109/72/109 
f 110/50/110 109/51/109 103/47/103 
f 103/47/103 105/46/105 110/50/110 
f 111/52/111 110/50/110 105/46/105 
f 105/46/105 107/27/107 111/52/111 
f 3/3/3 108/71/108 31/11/31 
f 112/73/112 31/11/31 108/71/108 
f 108/71/108 109/72/109 112/73/112 
f 113/74/113 112/75/112 109/76/109 
f 109/76/109 110/77/110 113/74/113 
f 59/24/59 113/74/113 110/77/110 
f 110/77/110 111/58/111 59/24/59 
f 114/78/114 32/12/32 31/11/31 
f 31/11/31 112/73/112 114/78/114 
f 115/21/115 114/61/114 112/75/112 
f 112/75/112 113/74/113 115/21/115 
f 14/6/14 115/21/115 113/74/113 
f 113/74/113 59/24/59 14/6/14 
f 12/3/12 116/17/116 117/68/117 
f 118/69/118 117/68/117 116/17/116 
f 116/17/116 119/70/119 118/69/118 
f 120/46/120 118/47/118 119/48/119 
f 119/48/119 48/22/48 120/46/120 
f 53/27/53 120/46/120 48/22/48 
f 48/22/48 5/5/5 53/27/53 
f 12/3/12 117/68/117 121/71/121 
f 122/72/122 121/71/121 117/68/117 
f 117/68/117 118/69/118 122/72/122 
f 123/50/123 122/51/122 118/47/118 
f 118/47/118 120/46/120 123/50/123 
f 124/52/124 123/50/123 120/46/120 
f 120/46/120 53/27/53 124/52/124 
f 12/3/12 121/71/121 33/11/33 
f 125/73/125 33/11/33 121/71/121 
f 121/71/121 122/72/122 125/73/125 
f 126/62/126 125/79/125 122/64/122 
f 122/64/122 123/80/123 126/62/126 
f 127/18/127 126/62/126 123/80/123 
f 123/80/123 124/66/124 127/18/127 
f 128/78/128 34/12/34 33/11/33 
f 33/11/33 125/73/125 128/78/128 
f 129/15/129 128/67/128 125/79/125 
f 125/79/125 126/62/126 129/15/129 
f 23/2/23 129/15/129 126/62/126 
f 126/62/126 127/18/127 23/2/23 
f 16/8/16 130/25/130 131/81/131 
f 132/82/132 131/81/131 130/25/130 
f 130/25/130 133/83/133 132/82/132 
f 134/56/134 132/84/132 133/58/133 
f 133/58/133 50/24/50 134/56/134 
f 47/21/47 134/56/134 50/24/50 
f 50/24/50 6/6/6 47/21/47 
f 16/8/16 131/81/131 135/85/135 
f 136/86/136 135/85/135 131/81/131 
f 131/81/131 132/82/132 136/86/136 
f 137/87/137 136/60/136 132/84/132 
f 132/84/132 134/56/134 137/87/137 
f 138/61/138 137/87/137 134/56/134 
f 134/56/134 47/21/47 138/61/138 
f 16/8/16 135/85/135 35/13/35 
f 139/88/139 35/13/35 135/85/135 
f 135/85/135 136/86/136 139/88/139 
f 140/62/140 139/79/139 136/64/136 
f 136/64/136 137/80/137 140/62/140 
f 141/18/141 140/62/140 137/80/137 
f 137/80/137 138/66/138 141/18/141 
f 142/89/142 36/14/36 35/13/35 
f 35/13/35 139/88/139 142/89/142 
f 55/15/55 142/67/142 139/79/139 
f 139/79/139 140/62/140 55/15/55 
f 11/2/11 55/15/55 140/62/140 
f 140/62/140 141/18/141 11/2/11 
f 24/3/24 143/17/143 144/68/144 
f 145/69/145 144/68/144 143/17/143 
f 143/17/143 146/70/146 145/69/145 
f 147/90/147 145/91/145 146/89/146 
f 146/89/146 54/14/54 147/90/147 
f 51/25/51 147/90/147 54/14/54 
f 54/14/54 8/8/8 51/25/51 
f 24/3/24 144/68/144 148/71/148 
f 149/72/149 148/71/148 144/68/144 
f 144/68/144 145/69/145 149/72/149 
f 150/92/150 149/93/149 145/91/145 
f 145/91/145 147/90/147 150/92/150 
f 151/83/151 150/92/150 147/90/147 
f 147/90/147 51/25/51 151/83/151 
f 24/3/24 148/71/148 37/11/37 
f 152/73/152 37/11/37 148/71/148 
f 148/71/148 149/72/149 152/73/152 
f 153/94/153 152/95/152 149/96/149 
f 149/96/149 150/97/150 153/94/153 
f 154/26/154 153/94/153 150/97/150 
f 150/97/150 151/98/151 154/26/154 
f 155/78/155 38/12/38 37/11/37 
f 37/11/37 152/73/152 155/78/155 
f 60/23/60 155/99/155 152/95/152 
f 152/95/152 153/94/153 60/23/60 
f 19/7/19 60/23/60 153/94/153 
f 153/94/153 154/26/154 19/7/19 
f 20/8/20 156/25/156 157/81/157 
f 158/82/158 157/81/157 156/25/156 
f 156/25/156 159/83/159 158/82/158 
f 160/100/160 158/101/158 159/98/159 
f 159/98/159 52/26/52 160/100/160 
f 49/23/49 160/100/160 52/26/52 
f 52/26/52 7/7/7 49/23/49 
f 20/8/20 157/81/157 161/85/161 
f 162/86/162 161/85/161 157/81/157 
f 157/81/157 158/82/158 162/86/162 
f 163/102/163 162/103/162 158/101/158 
f 158/101/158 160/100/160 163/102/163 
f 164/99/164 163/102/163 160/100/160 
f 160/100/160 49/23/49 164/99/164 
f 20/8/20 161/85/161 39/13/39 
f 165/88/165 39/13/39 161/85/161 
f 161/85/161 162/86/162 165/88/165 
f 166/94/166 165/95/165 162/96/162 
f 162/96/162 163/97/163 166/94/166 
f 167/26/167 166/94/166 163/97/163 
f 163/97/163 164/98/164 167/26/167 
f 168/89/168 40/14/40 39/13/39 
f 39/13/39 165/88/165 168/89/168 
f 58/23/58 168/99/168 165/95/165 
f 165/95/165 166/94/166 58/23/58 
f 15/7/15 58/23/58 166/94/166 
f 166/94/166 167/26/167 15/7/15 
f 101/67/101 41/15/41 42/16/42 
f 42/16/42 71/33/71 101/67/101 
f 30/10/30 101/44/101 71/38/71 
f 71/38/71 67/20/67 30/10/30 
f 21/4/21 30/10/30 67/20/67 
f 67/20/67 22/1/22 21/4/21 
f 104/70/104 43/17/43 44/18/44 
f 44/18/44 98/66/98 104/70/104 
f 106/22/106 104/48/104 98/61/98 
f 98/61/98 94/21/94 106/22/106 
f 17/5/17 106/22/106 94/21/94 
f 94/21/94 18/6/18 17/5/17 
f 77/30/77 45/19/45 32/12/32 
f 32/12/32 114/78/114 77/30/77 
f 79/22/79 77/48/77 114/61/114 
f 114/61/114 115/21/115 79/22/79 
f 13/5/13 79/22/79 115/21/115 
f 115/21/115 14/6/14 13/5/13 
f 74/38/74 46/20/46 28/10/28 
f 28/10/28 87/44/87 74/38/74 
f 26/10/26 74/44/74 87/38/87 
f 87/38/87 88/20/88 26/10/26 
f 9/4/9 26/10/26 88/20/88 
f 88/20/88 10/1/10 9/4/9 
f 138/61/138 47/21/47 48/22/48 
f 48/22/48 119/48/119 138/61/138 
f 141/18/141 138/66/138 119/70/119 
f 119/70/119 116/17/116 141/18/141 
f 11/2/11 141/18/141 116/17/116 
f 116/17/116 12/3/12 11/2/11 
f 164/99/164 49/23/49 50/24/50 
f 50/24/50 133/58/133 164/99/164 
f 167/26/167 164/98/164 133/83/133 
f 133/83/133 130/25/130 167/26/167 
f 15/7/15 167/26/167 130/25/130 
f 130/25/130 16/8/16 15/7/15 
f 151/83/151 51/25/51 52/26/52 
f 52/26/52 159/98/159 151/83/151 
f 154/26/154 151/98/151 159/83/159 
f 159/83/159 156/25/156 154/26/154 
f 19/7/19 154/26/154 156/25/156 
f 156/25/156 20/8/20 19/7/19 
f 124/52/124 53/27/53 54/14/54 
f 54/14/54 146/89/146 124/52/124 
f 127/18/127 124/66/124 146/70/146 
f 146/70/146 143/17/143 127/18/127 
f 23/2/23 127/18/127 143/17/143 
f 143/17/143 24/3/24 23/2/23 
f 142/67/142 55/15/55 56/16/56 
f 56/16/56 84/33/84 142/67/142 
f 36/14/36 142/89/142 84/52/84 
f 84/52/84 80/27/80 36/14/36 
f 16/8/16 36/14/36 80/27/80 
f 80/27/80 13/5/13 16/8/16 
f 64/30/64 57/19/57 34/12/34 
f 34/12/34 128/78/128 64/30/64 
f 66/16/66 64/33/64 128/67/128 
f 128/67/128 129/15/129 66/16/66 
f 22/1/22 66/16/66 129/15/129 
f 129/15/129 23/2/23 22/1/22 
f 168/99/168 58/23/58 59/24/59 
f 59/24/59 111/58/111 168/99/168 
f 40/14/40 168/89/168 111/52/111 
f 111/52/111 107/27/107 40/14/40 
f 20/8/20 40/14/40 107/27/107 
f 107/27/107 17/5/17 20/8/20 
f 155/99/155 60/23/60 61/24/61 
f 61/24/61 92/58/92 155/99/155 
f 38/12/38 155/78/155 92/30/92 
f 92/30/92 89/19/89 38/12/38 
f 24/3/24 38/12/38 89/19/89 
f 89/19/89 21/4/21 24/3/24 
# 332 faces

